<mxfile host="65bd71144e">
    <diagram id="sdi0hYxZAmGWV3q7KsMB" name="Page-1">
        <mxGraphModel dx="924" dy="539" grid="1" gridSize="10" guides="1" tooltips="1" connect="1" arrows="1" fold="1" page="1" pageScale="1" pageWidth="850" pageHeight="1100" math="0" shadow="0">
            <root>
                <mxCell id="0"/>
                <mxCell id="1" parent="0"/>
                <mxCell id="2" value="S0: Start" style="ellipse;shape=doubleEllipse;whiteSpace=wrap;html=1;aspect=fixed;direction=south;" vertex="1" parent="1">
                    <mxGeometry x="70" y="270" width="100" height="100" as="geometry"/>
                </mxCell>
                <mxCell id="3" value="S1: Gera posição inicial" style="ellipse;whiteSpace=wrap;html=1;aspect=fixed;" vertex="1" parent="1">
                    <mxGeometry x="250" y="240" width="90" height="90" as="geometry"/>
                </mxCell>
                <mxCell id="4" value="S2: Espera interrupção" style="ellipse;whiteSpace=wrap;html=1;aspect=fixed;" vertex="1" parent="1">
                    <mxGeometry x="440" y="230" width="100" height="100" as="geometry"/>
                </mxCell>
                <mxCell id="5" value="S3: fecha garra" style="ellipse;whiteSpace=wrap;html=1;aspect=fixed;" vertex="1" parent="1">
                    <mxGeometry x="650" y="320" width="90" height="90" as="geometry"/>
                </mxCell>
                <mxCell id="6" value="S4: move para a posição" style="ellipse;whiteSpace=wrap;html=1;aspect=fixed;" vertex="1" parent="1">
                    <mxGeometry x="590" y="490" width="90" height="90" as="geometry"/>
                </mxCell>
                <mxCell id="7" value="S5: abre garra" style="ellipse;whiteSpace=wrap;html=1;aspect=fixed;" vertex="1" parent="1">
                    <mxGeometry x="400" y="440" width="90" height="90" as="geometry"/>
                </mxCell>
                <mxCell id="8" value="" style="curved=1;endArrow=classic;html=1;entryX=0;entryY=1;entryDx=0;entryDy=0;exitX=0;exitY=0;exitDx=0;exitDy=0;" edge="1" parent="1" source="7" target="4">
                    <mxGeometry width="50" height="50" relative="1" as="geometry">
                        <mxPoint x="445" y="440" as="sourcePoint"/>
                        <mxPoint x="435" y="350" as="targetPoint"/>
                        <Array as="points">
                            <mxPoint x="400" y="400"/>
                            <mxPoint x="420" y="340"/>
                        </Array>
                    </mxGeometry>
                </mxCell>
                <mxCell id="9" value="" style="curved=1;endArrow=classic;html=1;exitX=0.02;exitY=0.3;exitDx=0;exitDy=0;exitPerimeter=0;entryX=0.256;entryY=0.056;entryDx=0;entryDy=0;entryPerimeter=0;" edge="1" parent="1" source="2" target="3">
                    <mxGeometry width="50" height="50" relative="1" as="geometry">
                        <mxPoint x="150" y="260" as="sourcePoint"/>
                        <mxPoint x="200" y="210" as="targetPoint"/>
                        <Array as="points">
                            <mxPoint x="160" y="230"/>
                            <mxPoint x="240" y="220"/>
                        </Array>
                    </mxGeometry>
                </mxCell>
                <mxCell id="10" value="" style="curved=1;endArrow=classic;html=1;exitX=0.956;exitY=0.2;exitDx=0;exitDy=0;exitPerimeter=0;entryX=0;entryY=0;entryDx=0;entryDy=0;" edge="1" parent="1" source="3" target="4">
                    <mxGeometry width="50" height="50" relative="1" as="geometry">
                        <mxPoint x="330" y="252" as="sourcePoint"/>
                        <mxPoint x="463" y="225" as="targetPoint"/>
                        <Array as="points">
                            <mxPoint x="360" y="230"/>
                            <mxPoint x="420" y="220"/>
                        </Array>
                    </mxGeometry>
                </mxCell>
                <mxCell id="11" value="" style="curved=1;endArrow=classic;html=1;exitX=1;exitY=0.5;exitDx=0;exitDy=0;entryX=0;entryY=0;entryDx=0;entryDy=0;" edge="1" parent="1" source="4" target="5">
                    <mxGeometry width="50" height="50" relative="1" as="geometry">
                        <mxPoint x="540" y="339" as="sourcePoint"/>
                        <mxPoint x="659" y="326" as="targetPoint"/>
                        <Array as="points">
                            <mxPoint x="580" y="280"/>
                            <mxPoint x="640" y="300"/>
                        </Array>
                    </mxGeometry>
                </mxCell>
                <mxCell id="12" value="" style="curved=1;endArrow=classic;html=1;exitX=0.63;exitY=0.04;exitDx=0;exitDy=0;exitPerimeter=0;entryX=1;entryY=0;entryDx=0;entryDy=0;" edge="1" parent="1" source="4" target="4">
                    <mxGeometry width="50" height="50" relative="1" as="geometry">
                        <mxPoint x="510" y="240" as="sourcePoint"/>
                        <mxPoint x="629" y="227" as="targetPoint"/>
                        <Array as="points">
                            <mxPoint x="510" y="180"/>
                            <mxPoint x="570" y="210"/>
                        </Array>
                    </mxGeometry>
                </mxCell>
                <mxCell id="13" value="" style="curved=1;endArrow=classic;html=1;exitX=1;exitY=1;exitDx=0;exitDy=0;entryX=1.042;entryY=0.419;entryDx=0;entryDy=0;entryPerimeter=0;" edge="1" parent="1" source="5" target="6">
                    <mxGeometry width="50" height="50" relative="1" as="geometry">
                        <mxPoint x="680" y="430" as="sourcePoint"/>
                        <mxPoint x="803" y="483" as="targetPoint"/>
                        <Array as="points">
                            <mxPoint x="750" y="500"/>
                        </Array>
                    </mxGeometry>
                </mxCell>
                <mxCell id="14" value="" style="curved=1;endArrow=classic;html=1;exitX=0;exitY=1;exitDx=0;exitDy=0;entryX=0.635;entryY=0.999;entryDx=0;entryDy=0;entryPerimeter=0;" edge="1" parent="1" source="6" target="7">
                    <mxGeometry width="50" height="50" relative="1" as="geometry">
                        <mxPoint x="565" y="639" as="sourcePoint"/>
                        <mxPoint x="560" y="510" as="targetPoint"/>
                        <Array as="points">
                            <mxPoint x="580" y="590"/>
                            <mxPoint x="490" y="560"/>
                        </Array>
                    </mxGeometry>
                </mxCell>
                <mxCell id="16" value="Gera aleatoriamente" style="text;strokeColor=none;fillColor=none;align=center;verticalAlign=middle;spacingLeft=4;spacingRight=4;overflow=hidden;points=[[0,0.5],[1,0.5]];portConstraint=eastwest;rotatable=0;whiteSpace=wrap;html=1;" vertex="1" parent="1">
                    <mxGeometry x="250" y="330" width="95" height="30" as="geometry"/>
                </mxCell>
                <mxCell id="17" value="Flags de interupção = false" style="text;strokeColor=none;fillColor=none;align=center;verticalAlign=middle;spacingLeft=4;spacingRight=4;overflow=hidden;points=[[0,0.5],[1,0.5]];portConstraint=eastwest;rotatable=0;whiteSpace=wrap;html=1;" vertex="1" parent="1">
                    <mxGeometry x="470" y="160" width="165" height="30" as="geometry"/>
                </mxCell>
                <mxCell id="18" value="Lê se alguma função de interrupção mudou o estado de uma flag" style="text;strokeColor=none;fillColor=none;align=center;verticalAlign=middle;spacingLeft=4;spacingRight=4;overflow=hidden;points=[[0,0.5],[1,0.5]];portConstraint=eastwest;rotatable=0;whiteSpace=wrap;html=1;" vertex="1" parent="1">
                    <mxGeometry x="440" y="330" width="165" height="50" as="geometry"/>
                </mxCell>
            </root>
        </mxGraphModel>
    </diagram>
</mxfile>